<?xml version="1.0" encoding="UTF-8"?>
<svg xmlns="http://www.w3.org/2000/svg" xmlns:xlink="http://www.w3.org/1999/xlink" width="40px" height="40px" viewBox="0 0 40 40" version="1.1">
<defs>
<filter id="alpha" filterUnits="objectBoundingBox" x="0%" y="0%" width="100%" height="100%">
  <feColorMatrix type="matrix" in="SourceGraphic" values="0 0 0 0 1 0 0 0 0 1 0 0 0 0 1 0 0 0 1 0"/>
</filter>
<mask id="mask0">
  <g filter="url(#alpha)">
<rect x="0" y="0" width="40" height="40" style="fill:rgb(0%,0%,0%);fill-opacity:0.980392;stroke:none;"/>
  </g>
</mask>
<clipPath id="clip1">
  <rect x="0" y="0" width="40" height="41"/>
</clipPath>
<g id="surface5" clip-path="url(#clip1)">
<path style=" stroke:none;fill-rule:evenodd;fill:rgb(42.352941%,70.196078%,24.313725%);fill-opacity:1;" d="M 19.773438 1.949219 C 19.914062 1.929688 20.050781 1.964844 20.175781 2.050781 C 24.542969 5.492188 28.910156 8.933594 33.273438 12.375 C 33.371094 12.449219 33.386719 12.542969 33.324219 12.648438 C 27.289062 17.503906 21.238281 22.328125 15.175781 27.109375 C 10.71875 23.617188 6.285156 20.074219 1.875 16.480469 C 1.886719 16.390625 1.921875 16.324219 1.976562 16.273438 C 7.929688 11.535156 13.863281 6.761719 19.773438 1.949219 Z M 19.324219 5.367188 C 19.808594 5.648438 20.273438 5.980469 20.726562 6.359375 C 23.558594 8.617188 26.390625 10.871094 29.226562 13.128906 C 28.921875 13.339844 28.628906 13.582031 28.351562 13.847656 C 25.070312 11.257812 21.796875 8.65625 18.523438 6.050781 C 18.792969 5.820312 19.0625 5.59375 19.324219 5.367188 Z M 16.425781 7.625 C 18.8125 9.40625 21.179688 11.238281 23.523438 13.128906 C 23.222656 13.339844 22.929688 13.582031 22.648438 13.847656 C 20.304688 11.984375 17.945312 10.152344 15.574219 8.34375 C 15.863281 8.101562 16.144531 7.863281 16.425781 7.625 Z M 13.375 9.878906 C 16.148438 12.015625 18.914062 14.167969 21.675781 16.34375 C 21.761719 16.390625 21.804688 16.472656 21.800781 16.582031 C 21.558594 16.773438 21.316406 16.96875 21.074219 17.164062 C 21.007812 17.207031 20.941406 17.207031 20.875 17.164062 C 18.082031 14.992188 15.300781 12.804688 12.523438 10.597656 C 12.828125 10.390625 13.113281 10.152344 13.375 9.878906 Z M 13.375 9.878906 "/>
</g>
<mask id="mask1">
  <g filter="url(#alpha)">
<rect x="0" y="0" width="40" height="40" style="fill:rgb(0%,0%,0%);fill-opacity:0.921569;stroke:none;"/>
  </g>
</mask>
<clipPath id="clip2">
  <rect x="0" y="0" width="40" height="41"/>
</clipPath>
<g id="surface8" clip-path="url(#clip2)">
<path style=" stroke:none;fill-rule:evenodd;fill:rgb(42.352941%,70.196078%,24.313725%);fill-opacity:1;" d="M 30.523438 15.761719 C 30.632812 15.75 30.734375 15.785156 30.824219 15.863281 C 30.902344 16.058594 31.007812 16.207031 31.148438 16.308594 C 31.375 16.242188 31.601562 16.230469 31.824219 16.273438 C 32.152344 15.679688 32.480469 15.691406 32.800781 16.308594 C 32.832031 16.398438 32.832031 16.488281 32.800781 16.582031 C 32.71875 16.746094 32.644531 16.917969 32.574219 17.09375 C 32.683594 17.382812 32.757812 17.691406 32.800781 18.015625 C 32.949219 18.132812 33.101562 18.246094 33.25 18.359375 C 33.316406 18.71875 33.257812 19.046875 33.074219 19.351562 C 32.859375 19.355469 32.640625 19.355469 32.425781 19.351562 C 32.292969 19.53125 32.144531 19.679688 31.976562 19.792969 C 31.894531 19.980469 31.851562 20.1875 31.851562 20.410156 C 31.828125 20.507812 31.785156 20.585938 31.726562 20.648438 C 31.503906 20.707031 31.285156 20.6875 31.074219 20.582031 C 31.007812 20.308594 30.941406 20.035156 30.875 19.761719 C 30.699219 19.652344 30.546875 19.492188 30.425781 19.28125 C 30.210938 19.296875 29.992188 19.296875 29.773438 19.28125 C 29.421875 18.632812 29.519531 18.1875 30.074219 17.949219 C 30.125 17.644531 30.207031 17.359375 30.324219 17.09375 C 30.222656 16.871094 30.140625 16.632812 30.074219 16.375 C 30.101562 16.308594 30.125 16.238281 30.148438 16.171875 C 30.285156 16.042969 30.410156 15.90625 30.523438 15.761719 Z M 31.425781 17.265625 C 31.992188 17.445312 32.15625 17.898438 31.925781 18.632812 C 31.601562 19.082031 31.277344 19.082031 30.949219 18.632812 C 30.722656 17.914062 30.878906 17.457031 31.425781 17.265625 Z M 31.425781 17.265625 "/>
</g>
<mask id="mask2">
  <g filter="url(#alpha)">
<rect x="0" y="0" width="40" height="40" style="fill:rgb(0%,0%,0%);fill-opacity:0.94902;stroke:none;"/>
  </g>
</mask>
<clipPath id="clip3">
  <rect x="0" y="0" width="40" height="41"/>
</clipPath>
<g id="surface11" clip-path="url(#clip3)">
<path style=" stroke:none;fill-rule:evenodd;fill:rgb(42.352941%,70.196078%,24.313725%);fill-opacity:1;" d="M 35.175781 18.015625 C 35.433594 17.945312 35.625 18.058594 35.75 18.359375 C 35.792969 18.679688 35.84375 19 35.898438 19.316406 C 36.226562 19.476562 36.519531 19.714844 36.773438 20.035156 C 37.039062 20.035156 37.296875 19.980469 37.550781 19.863281 C 37.648438 19.867188 37.738281 19.898438 37.824219 19.964844 C 37.96875 20.335938 38.085938 20.722656 38.175781 21.128906 C 38.152344 21.285156 38.101562 21.421875 38.023438 21.539062 C 37.796875 21.667969 37.585938 21.835938 37.398438 22.050781 C 37.378906 22.546875 37.285156 23.011719 37.125 23.453125 C 37.300781 23.773438 37.449219 24.113281 37.574219 24.480469 C 37.554688 24.714844 37.46875 24.894531 37.324219 25.027344 C 37.175781 25.183594 37.023438 25.34375 36.875 25.503906 C 36.773438 25.550781 36.675781 25.550781 36.574219 25.503906 C 36.367188 25.253906 36.148438 25.011719 35.925781 24.785156 C 35.582031 24.898438 35.230469 24.953125 34.875 24.957031 C 34.710938 25.25 34.527344 25.523438 34.324219 25.777344 C 34.160156 25.828125 34.011719 25.78125 33.875 25.640625 C 33.695312 25.476562 33.519531 25.308594 33.351562 25.128906 C 33.351562 24.667969 33.441406 24.234375 33.625 23.828125 C 33.414062 23.414062 33.273438 22.957031 33.199219 22.460938 C 32.980469 22.324219 32.753906 22.199219 32.523438 22.085938 C 32.417969 21.972656 32.351562 21.824219 32.324219 21.640625 C 32.390625 21.222656 32.492188 20.824219 32.625 20.445312 C 32.710938 20.378906 32.800781 20.34375 32.898438 20.34375 C 33.140625 20.40625 33.382812 20.417969 33.625 20.375 C 33.828125 20.035156 34.070312 19.75 34.351562 19.519531 C 34.402344 19.113281 34.453125 18.703125 34.5 18.289062 C 34.546875 18.207031 34.601562 18.152344 34.675781 18.121094 C 34.851562 18.105469 35.019531 18.074219 35.175781 18.015625 Z M 35.175781 20.890625 C 35.78125 20.871094 36.132812 21.269531 36.226562 22.085938 C 36.046875 23.1875 35.582031 23.527344 34.824219 23.109375 C 34.371094 22.566406 34.324219 21.960938 34.675781 21.300781 C 34.832031 21.125 35 20.988281 35.175781 20.890625 Z M 35.175781 20.890625 "/>
</g>
<mask id="mask3">
  <g filter="url(#alpha)">
<rect x="0" y="0" width="40" height="40" style="fill:rgb(0%,0%,0%);fill-opacity:0.960784;stroke:none;"/>
  </g>
</mask>
<clipPath id="clip4">
  <rect x="0" y="0" width="40" height="41"/>
</clipPath>
<g id="surface14" clip-path="url(#clip4)">
<path style=" stroke:none;fill-rule:evenodd;fill:rgb(42.352941%,70.196078%,24.313725%);fill-opacity:1;" d="M 3.523438 20.136719 C 3.695312 20.21875 3.859375 20.320312 4.023438 20.445312 C 7.769531 23.433594 11.519531 26.40625 15.273438 29.367188 C 17.75 27.414062 20.214844 25.441406 22.675781 23.453125 C 22.894531 23.253906 23.125 23.109375 23.375 23.007812 C 23.148438 23.988281 23.023438 24.988281 23 26.015625 C 20.425781 28.136719 17.835938 30.210938 15.226562 32.238281 C 10.792969 28.777344 6.378906 25.277344 1.976562 21.742188 C 1.839844 21.628906 1.839844 21.515625 1.976562 21.402344 C 2.496094 20.976562 3.011719 20.558594 3.523438 20.136719 Z M 3.523438 20.136719 "/>
</g>
<mask id="mask4">
  <g filter="url(#alpha)">
<rect x="0" y="0" width="40" height="40" style="fill:rgb(0%,0%,0%);fill-opacity:0.968627;stroke:none;"/>
  </g>
</mask>
<clipPath id="clip5">
  <rect x="0" y="0" width="40" height="41"/>
</clipPath>
<g id="surface17" clip-path="url(#clip5)">
<path style=" stroke:none;fill-rule:evenodd;fill:rgb(42.352941%,70.196078%,24.313725%);fill-opacity:1;" d="M 27.023438 20.136719 C 27.164062 20.121094 27.300781 20.152344 27.425781 20.238281 C 27.5625 20.507812 27.675781 20.792969 27.773438 21.09375 C 27.824219 21.117188 27.875 21.140625 27.925781 21.164062 C 28.277344 21.105469 28.625 21.082031 28.976562 21.09375 C 29.09375 20.757812 29.242188 20.449219 29.425781 20.171875 C 29.828125 20.160156 30.195312 20.320312 30.523438 20.648438 C 30.617188 20.824219 30.640625 21.019531 30.601562 21.230469 C 30.542969 21.472656 30.484375 21.710938 30.425781 21.949219 C 30.691406 22.3125 30.957031 22.679688 31.226562 23.042969 C 31.535156 22.925781 31.851562 22.878906 32.175781 22.90625 C 32.390625 23.316406 32.542969 23.773438 32.625 24.273438 C 32.601562 24.433594 32.554688 24.570312 32.476562 24.683594 C 32.269531 24.804688 32.078125 24.953125 31.898438 25.128906 C 31.867188 25.652344 31.867188 26.175781 31.898438 26.699219 C 32.078125 26.875 32.269531 27.023438 32.476562 27.144531 C 32.554688 27.261719 32.601562 27.398438 32.625 27.554688 C 32.542969 28.054688 32.390625 28.511719 32.175781 28.921875 C 31.851562 28.949219 31.535156 28.902344 31.226562 28.785156 C 30.957031 29.152344 30.691406 29.515625 30.425781 29.878906 C 30.507812 30.179688 30.574219 30.488281 30.625 30.804688 C 30.621094 30.925781 30.597656 31.039062 30.550781 31.144531 C 30.214844 31.480469 29.839844 31.652344 29.425781 31.65625 C 29.238281 31.390625 29.097656 31.082031 29 30.734375 C 28.957031 30.695312 28.90625 30.671875 28.851562 30.667969 C 28.488281 30.722656 28.132812 30.746094 27.773438 30.734375 C 27.679688 31.101562 27.53125 31.410156 27.324219 31.65625 C 26.914062 31.652344 26.539062 31.480469 26.199219 31.144531 C 26.171875 31.035156 26.144531 30.917969 26.125 30.804688 C 26.207031 30.464844 26.265625 30.121094 26.300781 29.777344 C 26.023438 29.492188 25.785156 29.164062 25.574219 28.785156 C 25.246094 28.890625 24.914062 28.933594 24.574219 28.921875 C 24.3125 28.445312 24.1875 27.910156 24.199219 27.316406 C 24.21875 27.253906 24.242188 27.195312 24.273438 27.144531 C 24.457031 27.019531 24.640625 26.894531 24.824219 26.769531 C 24.890625 26.199219 24.890625 25.628906 24.824219 25.058594 C 24.511719 24.9375 24.277344 24.6875 24.125 24.308594 C 24.203125 23.796875 24.351562 23.328125 24.574219 22.90625 C 24.878906 22.847656 25.167969 22.90625 25.449219 23.078125 C 25.730469 22.738281 26.015625 22.394531 26.300781 22.050781 C 26.257812 21.710938 26.199219 21.367188 26.125 21.027344 C 26.144531 20.910156 26.171875 20.796875 26.199219 20.683594 C 26.46875 20.472656 26.746094 20.289062 27.023438 20.136719 Z M 28.425781 24.101562 C 29.546875 24.371094 29.972656 25.257812 29.699219 26.769531 C 29.316406 27.707031 28.742188 28.039062 27.976562 27.761719 C 27.238281 27.28125 26.960938 26.496094 27.148438 25.402344 C 27.394531 24.625 27.820312 24.191406 28.425781 24.101562 Z M 28.425781 24.101562 "/>
</g>
<mask id="mask5">
  <g filter="url(#alpha)">
<rect x="0" y="0" width="40" height="40" style="fill:rgb(0%,0%,0%);fill-opacity:0.960784;stroke:none;"/>
  </g>
</mask>
<clipPath id="clip6">
  <rect x="0" y="0" width="40" height="41"/>
</clipPath>
<g id="surface20" clip-path="url(#clip6)">
<path style=" stroke:none;fill-rule:evenodd;fill:rgb(42.352941%,70.196078%,24.313725%);fill-opacity:1;" d="M 3.523438 25.265625 C 3.820312 25.421875 4.101562 25.613281 4.375 25.847656 C 7.972656 28.753906 11.578125 31.636719 15.199219 34.496094 C 17.804688 32.402344 20.414062 30.316406 23.023438 28.238281 C 23.097656 28.1875 23.164062 28.199219 23.226562 28.273438 C 23.421875 29.007812 23.671875 29.703125 23.976562 30.359375 C 21.089844 32.765625 18.171875 35.101562 15.226562 37.367188 C 10.742188 33.894531 6.292969 30.347656 1.875 26.734375 C 1.886719 26.648438 1.921875 26.582031 1.976562 26.53125 C 2.511719 26.140625 3.027344 25.71875 3.523438 25.265625 Z M 3.523438 25.265625 "/>
</g>
</defs>
<g id="surface1">
<use xlink:href="#surface5" mask="url(#mask0)"/>
<use xlink:href="#surface8" mask="url(#mask1)"/>
<use xlink:href="#surface11" mask="url(#mask2)"/>
<use xlink:href="#surface14" mask="url(#mask3)"/>
<use xlink:href="#surface17" mask="url(#mask4)"/>
<use xlink:href="#surface20" mask="url(#mask5)"/>
</g>
</svg>
